<svg xmlns="http://www.w3.org/2000/svg" xmlns:xlink="http://www.w3.org/1999/xlink" width="500" zoomAndPan="magnify" viewBox="0 0 375 374.999991" height="500" preserveAspectRatio="xMidYMid meet" version="1.0"><defs><g/><clipPath id="cf8e1d2f7d"><path d="M 35.851562 35.851562 L 338.851562 35.851562 L 338.851562 338.851562 L 35.851562 338.851562 Z M 35.851562 35.851562 " clip-rule="nonzero"/></clipPath><clipPath id="31a8a235af"><path d="M 187.351562 35.851562 C 103.679688 35.851562 35.851562 103.679688 35.851562 187.351562 C 35.851562 271.023438 103.679688 338.851562 187.351562 338.851562 C 271.023438 338.851562 338.851562 271.023438 338.851562 187.351562 C 338.851562 103.679688 271.023438 35.851562 187.351562 35.851562 Z M 187.351562 35.851562 " clip-rule="nonzero"/></clipPath><clipPath id="0f8d3497e2"><path d="M 96.546875 96.546875 L 278.453125 96.546875 L 278.453125 278.453125 L 96.546875 278.453125 Z M 96.546875 96.546875 " clip-rule="nonzero"/></clipPath><clipPath id="ceb9376d6b"><path d="M 187.5 96.546875 C 137.269531 96.546875 96.546875 137.269531 96.546875 187.5 C 96.546875 237.730469 137.269531 278.453125 187.5 278.453125 C 237.730469 278.453125 278.453125 237.730469 278.453125 187.5 C 278.453125 137.269531 237.730469 96.546875 187.5 96.546875 Z M 187.5 96.546875 " clip-rule="nonzero"/></clipPath><clipPath id="c0cc11386b"><path d="M 56.34375 182.011719 L 67.316406 182.011719 L 67.316406 192.988281 L 56.34375 192.988281 Z M 56.34375 182.011719 " clip-rule="nonzero"/></clipPath><clipPath id="a8b29075bb"><path d="M 61.828125 182.011719 C 58.800781 182.011719 56.34375 184.46875 56.34375 187.5 C 56.34375 190.53125 58.800781 192.988281 61.828125 192.988281 C 64.859375 192.988281 67.316406 190.53125 67.316406 187.5 C 67.316406 184.46875 64.859375 182.011719 61.828125 182.011719 Z M 61.828125 182.011719 " clip-rule="nonzero"/></clipPath><clipPath id="852e15b73a"><path d="M 306.789062 182.011719 L 317.765625 182.011719 L 317.765625 192.988281 L 306.789062 192.988281 Z M 306.789062 182.011719 " clip-rule="nonzero"/></clipPath><clipPath id="fe74c851c0"><path d="M 312.277344 182.011719 C 309.246094 182.011719 306.789062 184.46875 306.789062 187.5 C 306.789062 190.53125 309.246094 192.988281 312.277344 192.988281 C 315.308594 192.988281 317.765625 190.53125 317.765625 187.5 C 317.765625 184.46875 315.308594 182.011719 312.277344 182.011719 Z M 312.277344 182.011719 " clip-rule="nonzero"/></clipPath></defs><g clip-path="url(#cf8e1d2f7d)"><g clip-path="url(#31a8a235af)"><path stroke-linecap="butt" transform="matrix(0.749275, 0, 0, 0.749275, 35.851156, 35.851151)" fill="none" stroke-linejoin="miter" d="M 202.195867 0.000548762 C 90.525491 0.000548762 0.000542757 90.525497 0.000542757 202.195873 C 0.000542757 313.866249 90.525491 404.391197 202.195867 404.391197 C 313.866243 404.391197 404.391191 313.866249 404.391191 202.195873 C 404.391191 90.525497 313.866243 0.000548762 202.195867 0.000548762 Z M 202.195867 0.000548762 " stroke="#403730" stroke-width="2" stroke-opacity="1" stroke-miterlimit="4"/></g></g><g clip-path="url(#0f8d3497e2)"><g clip-path="url(#ceb9376d6b)"><path fill="#e8e5de" d="M 96.546875 96.546875 L 278.453125 96.546875 L 278.453125 278.453125 L 96.546875 278.453125 Z M 96.546875 96.546875 " fill-opacity="1" fill-rule="nonzero"/></g></g><g clip-path="url(#c0cc11386b)"><g clip-path="url(#a8b29075bb)"><path fill="#403730" d="M 56.34375 182.011719 L 67.316406 182.011719 L 67.316406 192.988281 L 56.34375 192.988281 Z M 56.34375 182.011719 " fill-opacity="1" fill-rule="nonzero"/></g></g><g clip-path="url(#852e15b73a)"><g clip-path="url(#fe74c851c0)"><path fill="#403730" d="M 306.789062 182.011719 L 317.765625 182.011719 L 317.765625 192.988281 L 306.789062 192.988281 Z M 306.789062 182.011719 " fill-opacity="1" fill-rule="nonzero"/></g></g><g fill="#403730" fill-opacity="1"><g transform="translate(96.180125, 278.023042)"><g><path d="M 11.308594 2.652344 C 11.863281 2.046875 12.25 1.375 12.507812 0.652344 C 12.761719 -0.0703125 12.863281 -0.796875 12.820312 -1.519531 C 12.765625 -2.253906 12.570312 -2.957031 12.246094 -3.644531 C 11.90625 -4.34375 11.441406 -4.976562 10.847656 -5.523438 L 8.648438 -7.542969 L 0.925781 0.851562 L 3.125 2.875 C 3.714844 3.417969 4.375 3.84375 5.097656 4.121094 C 5.8125 4.386719 6.539062 4.511719 7.277344 4.503906 C 8 4.488281 8.707031 4.339844 9.40625 4.023438 C 10.105469 3.710938 10.738281 3.269531 11.308594 2.652344 Z M 10.46875 1.878906 C 9.582031 2.84375 8.496094 3.328125 7.25 3.34375 C 6.003906 3.359375 4.90625 2.917969 3.945312 2.03125 L 2.585938 0.78125 L 8.71875 -5.886719 L 10.078125 -4.636719 C 11.039062 -3.75 11.558594 -2.679688 11.660156 -1.449219 C 11.734375 -0.191406 11.34375 0.929688 10.46875 1.878906 Z M 10.46875 1.878906 "/></g></g></g><g fill="#403730" fill-opacity="1"><g transform="translate(109.959725, 289.954872)"><g><path d="M 6.59375 4.597656 L 7.214844 3.703125 L 2.621094 0.496094 L 4.941406 -2.835938 L 9.402344 0.273438 L 10.035156 -0.632812 L 5.574219 -3.742188 L 7.894531 -7.074219 L 12.492188 -3.867188 L 13.117188 -4.761719 L 7.558594 -8.640625 L 1.03125 0.71875 Z M 6.59375 4.597656 "/></g></g></g><g fill="#403730" fill-opacity="1"><g transform="translate(123.870308, 299.106658)"><g><path d="M 4.445312 3.058594 L 14.570312 -5.339844 L 13.4375 -5.921875 L 5.773438 0.476562 L 6.496094 -9.488281 L 5.363281 -10.070312 Z M 4.445312 3.058594 "/></g></g></g><g fill="#403730" fill-opacity="1"><g transform="translate(140.08887, 306.771657)"><g/></g></g><g fill="#403730" fill-opacity="1"><g transform="translate(151.180416, 310.64232)"><g><path d="M 10.371094 -7.96875 L 10.644531 -9.023438 L 4.082031 -10.726562 L 1.21875 0.316406 L 2.355469 0.609375 L 3.648438 -4.375 L 8.910156 -3.007812 L 9.1875 -4.082031 L 3.925781 -5.445312 L 4.945312 -9.375 Z M 10.371094 -7.96875 "/></g></g></g><g fill="#403730" fill-opacity="1"><g transform="translate(166.481525, 314.193558)"><g><path d="M 9.90625 -2.566406 L 10.851562 -10.144531 L 9.6875 -10.289062 L 8.722656 -2.546875 C 8.664062 -2.082031 8.53125 -1.707031 8.324219 -1.414062 C 7.726562 -0.539062 6.734375 -0.191406 5.355469 -0.363281 C 4.457031 -0.476562 3.765625 -0.765625 3.28125 -1.230469 C 2.722656 -1.757812 2.503906 -2.445312 2.609375 -3.308594 L 3.578125 -11.050781 L 2.410156 -11.195312 L 1.464844 -3.621094 C 1.3125 -2.390625 1.589844 -1.375 2.304688 -0.574219 C 2.96875 0.183594 3.945312 0.644531 5.207031 0.800781 C 6.457031 0.957031 7.496094 0.75 8.347656 0.179688 C 9.234375 -0.421875 9.753906 -1.335938 9.90625 -2.566406 Z M 9.90625 -2.566406 "/></g></g></g><g fill="#403730" fill-opacity="1"><g transform="translate(184.221449, 315.837927)"><g><path d="M 2.433594 -1.171875 L 2.4375 -11.40625 L 1.265625 -11.40625 L 1.257812 0 L 2.433594 0 L 6.507812 0.00390625 L 6.511719 -1.171875 Z M 2.433594 -1.171875 "/></g></g></g><g fill="#403730" fill-opacity="1"><g transform="translate(198.290282, 315.450836)"><g><path d="M 2.292969 -1.429688 L 1.183594 -11.605469 L 0.015625 -11.476562 L 1.25 -0.136719 L 1.835938 -0.199219 L 2.417969 -0.261719 L 6.472656 -0.703125 L 6.34375 -1.871094 Z M 2.292969 -1.429688 "/></g></g></g><g fill="#403730" fill-opacity="1"><g transform="translate(212.297864, 313.57057)"><g><path d="M 3.082031 -6.230469 C 4.601562 -6.21875 5.667969 -6.070312 6.289062 -5.769531 C 6.71875 -5.558594 6.984375 -5.222656 7.089844 -4.765625 C 7.195312 -4.308594 7.1875 -3.910156 7.050781 -3.601562 C 6.71875 -2.804688 5.917969 -2.253906 4.675781 -1.964844 C 2.945312 -1.5625 1.828125 -1.921875 1.339844 -3.050781 L 0 -2.738281 C 0.828125 -0.949219 2.46875 -0.351562 4.917969 -0.921875 C 6.015625 -1.175781 6.875 -1.617188 7.496094 -2.277344 C 8.246094 -3.054688 8.507812 -4.011719 8.25 -5.121094 C 8.035156 -6.039062 7.511719 -6.65625 6.679688 -6.980469 C 6.089844 -7.222656 5.195312 -7.359375 4 -7.390625 C 2.789062 -7.417969 1.996094 -7.492188 1.609375 -7.59375 C 0.773438 -7.792969 0.273438 -8.226562 0.128906 -8.917969 C 0.046875 -9.277344 0.0390625 -9.605469 0.152344 -9.871094 C 0.425781 -10.605469 1.101562 -11.109375 2.179688 -11.359375 C 3.703125 -11.710938 4.679688 -11.421875 5.128906 -10.527344 L 6.371094 -10.816406 C 5.589844 -12.324219 4.109375 -12.839844 1.953125 -12.339844 C 0.972656 -12.113281 0.167969 -11.648438 -0.429688 -10.957031 C -1.042969 -10.265625 -1.242188 -9.410156 -0.996094 -8.363281 C -0.667969 -6.941406 0.703125 -6.226562 3.082031 -6.230469 Z M 3.082031 -6.230469 "/></g></g></g><g fill="#403730" fill-opacity="1"><g transform="translate(228.655725, 309.238094)"><g><path d="M -3.242188 -9.835938 L -0.640625 -10.789062 L 2.902344 -1.097656 L 4.007812 -1.5 L 0.460938 -11.191406 L 3.0625 -12.140625 L 2.6875 -13.167969 L 0.0859375 -12.214844 L -1.015625 -11.8125 L -3.617188 -10.859375 Z M -3.242188 -9.835938 "/></g></g></g><g fill="#403730" fill-opacity="1"><g transform="translate(242.327125, 303.847145)"><g><path d="M 0.835938 -5.148438 L 0.28125 -10.769531 L 4.519531 -7.046875 Z M 9.050781 -4.664062 L -0.980469 -13.21875 L 0.148438 -0.078125 L 1.28125 -0.660156 L 0.949219 -3.980469 L 5.410156 -6.277344 L 7.917969 -4.082031 Z M 9.050781 -4.664062 "/></g></g></g><g fill="#403730" fill-opacity="1"><g transform="translate(257.896658, 295.299113)"><g><path d="M 7.511719 -9.65625 L 6.460938 -8.90625 C 6.5625 -8.070312 6.464844 -7.257812 6.144531 -6.492188 C 5.835938 -5.714844 5.320312 -5.078125 4.636719 -4.59375 C 3.613281 -3.859375 2.476562 -3.605469 1.207031 -3.851562 C -0.0195312 -4.070312 -0.996094 -4.710938 -1.738281 -5.75 C -2.476562 -6.785156 -2.769531 -7.917969 -2.589844 -9.164062 C -2.503906 -9.738281 -2.304688 -10.292969 -2 -10.820312 C -1.710938 -11.335938 -1.351562 -11.757812 -0.914062 -12.070312 C -0.492188 -12.371094 -0.0820312 -12.582031 0.3125 -12.71875 C 1.523438 -13.132812 2.703125 -13.066406 3.863281 -12.515625 L 4.914062 -13.265625 C 3.933594 -13.886719 2.867188 -14.195312 1.699219 -14.183594 C 0.519531 -14.164062 -0.539062 -13.824219 -1.480469 -13.152344 C -2.777344 -12.222656 -3.527344 -10.964844 -3.753906 -9.378906 C -3.867188 -8.640625 -3.824219 -7.886719 -3.644531 -7.148438 C -3.480469 -6.398438 -3.152344 -5.707031 -2.691406 -5.066406 C -1.757812 -3.757812 -0.527344 -2.960938 1.035156 -2.679688 C 2.617188 -2.367188 4.042969 -2.683594 5.339844 -3.609375 C 6.28125 -4.28125 6.945312 -5.171875 7.359375 -6.292969 C 7.75 -7.394531 7.800781 -8.503906 7.511719 -9.65625 Z M 7.511719 -9.65625 "/></g></g></g><g fill="#403730" fill-opacity="1"><g transform="translate(273.447374, 283.398638)"><g><path d="M 1.769531 -1.667969 L -1.898438 -5.5625 L 4.566406 -4.300781 L 5.667969 -5.335938 L -1.296875 -6.613281 L -2.15625 -13.640625 L -3.253906 -12.605469 L -2.371094 -6.066406 L -6.050781 -9.972656 L -6.90625 -9.167969 L 0.914062 -0.863281 Z M 1.769531 -1.667969 "/></g></g></g><g fill="#403730" fill-opacity="1"><g transform="translate(92.481277, 120.961547)"><g><path d="M -10.703125 -9.097656 L -8.363281 -12.035156 L 2.585938 -3.320312 L 3.578125 -4.570312 L -7.371094 -13.28125 L -5.035156 -16.222656 L -6.191406 -17.140625 L -8.53125 -14.203125 L -9.519531 -12.957031 L -11.859375 -10.019531 Z M -10.703125 -9.097656 "/></g></g></g><g fill="#403730" fill-opacity="1"><g transform="translate(105.340733, 105.951145)"><g><path d="M -0.539062 -7.054688 L -3.066406 -14.289062 L 3.710938 -10.734375 Z M 10.441406 -9.039062 L -5.511719 -17.109375 L 0.171875 -0.148438 L 1.480469 -1.28125 L -0.0195312 -5.550781 L 5.125 -10.003906 L 9.136719 -7.90625 Z M 10.441406 -9.039062 "/></g></g></g><g fill="#403730" fill-opacity="1"><g transform="translate(123.869611, 91.212956)"><g><path d="M 2.875 -1.621094 L -0.527344 -7.644531 L 5.597656 -11.101562 L 8.996094 -5.078125 L 10.382812 -5.863281 L 2.777344 -19.335938 L 1.390625 -18.554688 L 4.8125 -12.488281 L -1.308594 -9.03125 L -4.734375 -15.097656 L -6.121094 -14.3125 L 1.484375 -0.839844 Z M 2.875 -1.621094 "/></g></g></g><g fill="#403730" fill-opacity="1"><g transform="translate(144.437533, 80.523495)"><g><path d="M 15.265625 -4.707031 L 16.808594 -5.183594 L 8.507812 -19.890625 L 7.566406 -5.738281 L -1.1875 -16.898438 L 0.21875 -0.0664062 L 1.78125 -0.550781 L 0.820312 -11.777344 L 8.792969 -1.757812 L 9.714844 -14.523438 Z M 15.265625 -4.707031 "/></g></g></g><g fill="#403730" fill-opacity="1"><g transform="translate(171.163488, 73.802841)"><g><path d="M 3.277344 -0.390625 L 1.4375 -15.753906 L -0.144531 -15.566406 L 1.695312 -0.203125 Z M 3.277344 -0.390625 "/></g></g></g><g fill="#403730" fill-opacity="1"><g transform="translate(186.243659, 72.640833)"><g/></g></g><g fill="#403730" fill-opacity="1"><g transform="translate(202.156353, 73.236356)"><g><path d="M 15.65625 3.160156 L 17.242188 3.480469 L 16.980469 -13.402344 L 9.386719 -1.425781 L 7.035156 -15.410156 L 0.222656 0.046875 L 1.828125 0.371094 L 6.351562 -9.953125 L 8.5625 2.65625 L 15.472656 -8.113281 Z M 15.65625 3.160156 "/></g></g></g><g fill="#403730" fill-opacity="1"><g transform="translate(228.666068, 79.847353)"><g><path d="M 6.148438 -3.503906 L 11.605469 -8.882812 L 11.289062 -1.238281 Z M 12.636719 5.574219 L 13.109375 -12.296875 L 0.207031 0.09375 L 1.789062 0.789062 L 5.007812 -2.390625 L 11.234375 0.355469 L 11.054688 4.878906 Z M 12.636719 5.574219 "/></g></g></g><g fill="#403730" fill-opacity="1"><g transform="translate(249.950163, 90.425147)"><g><path d="M 8.308594 -11.324219 L 11.40625 -9.203125 L 3.5 2.339844 L 4.8125 3.242188 L 12.722656 -8.304688 L 15.820312 -6.179688 L 16.65625 -7.402344 L 13.558594 -9.523438 L 12.242188 -10.421875 L 9.144531 -12.546875 Z M 8.308594 -11.324219 "/></g></g></g><g fill="#403730" fill-opacity="1"><g transform="translate(265.855968, 102.331271)"><g><path d="M 10.097656 -9.765625 L 12.792969 -7.152344 L 3.054688 2.898438 L 4.199219 4.003906 L 13.9375 -6.046875 L 16.632812 -3.433594 L 17.664062 -4.496094 L 14.964844 -7.105469 L 13.824219 -8.214844 L 11.125 -10.828125 Z M 10.097656 -9.765625 "/></g></g></g><g fill="#403730" fill-opacity="1"><g transform="translate(279.560588, 116.90575)"><g><path d="M 2.003906 2.621094 L 14.300781 -6.769531 L 13.332031 -8.035156 L 1.035156 1.355469 Z M 2.003906 2.621094 "/></g></g></g><g fill="#403730" fill-opacity="1"><g transform="translate(127.502413, 211.124986)"><g><path d="M 67.542969 -54.050781 C 53.007812 -56.140625 22.703125 -53.480469 21.46875 -53.386719 C 20.707031 -53.292969 20.234375 -52.628906 20.234375 -51.867188 C 20.328125 -51.203125 20.898438 -50.632812 21.5625 -50.632812 C 21.660156 -50.632812 21.660156 -50.632812 21.753906 -50.726562 C 21.847656 -50.726562 28.878906 -51.296875 37.714844 -51.773438 C 27.546875 -41.511719 2.46875 -7.21875 1.328125 -5.699219 C 0.949219 -5.128906 1.046875 -4.273438 1.613281 -3.800781 C 1.898438 -3.609375 2.183594 -3.609375 2.46875 -3.609375 C 2.851562 -3.609375 3.230469 -3.800781 3.515625 -4.085938 C 3.800781 -4.558594 33.722656 -45.40625 41.609375 -51.675781 C 41.703125 -51.675781 41.796875 -51.773438 41.796875 -51.960938 C 50.726562 -52.246094 60.605469 -52.34375 67.066406 -51.390625 C 67.828125 -51.296875 68.492188 -51.773438 68.585938 -52.53125 C 68.777344 -53.195312 68.207031 -53.863281 67.542969 -54.050781 Z M 67.542969 -54.050781 "/></g></g></g><g fill="#403730" fill-opacity="1"><g transform="translate(174.048598, 211.124986)"><g><path d="M 75.140625 -25.648438 C 74.855469 -26.3125 74.097656 -26.695312 73.429688 -26.410156 C 62.316406 -22.324219 52.4375 -19 44.171875 -16.339844 C 38.851562 -14.535156 29.164062 -10.828125 27.738281 -12.917969 C 27.261719 -13.488281 28.308594 -15.390625 30.113281 -17.480469 C 34.199219 -21.46875 38.851562 -25.839844 38.472656 -27.644531 C 37.902344 -31.726562 28.023438 -27.453125 26.3125 -26.695312 C 22.039062 -24.984375 17.859375 -22.894531 13.871094 -20.519531 C 14.820312 -22.515625 16.246094 -24.320312 16.625 -26.503906 C 16.148438 -28.117188 14.34375 -28.785156 12.824219 -28.308594 C 8.550781 -27.359375 4.75 -24.890625 0.761719 -22.894531 C 2.753906 -25.933594 5.128906 -28.59375 7.410156 -31.253906 C 8.359375 -32.679688 5.890625 -33.914062 5.226562 -32.582031 C 2.089844 -29.636719 -0.378906 -26.125 -2.660156 -22.515625 C -3.703125 -21.277344 -3.417969 -18.902344 -1.425781 -19 C 3.800781 -20.707031 8.167969 -24.320312 13.585938 -25.839844 C 12.445312 -23.652344 11.113281 -21.5625 10.542969 -19.285156 C 9.972656 -17.953125 11.589844 -16.625 12.824219 -17.195312 C 15.484375 -18.050781 17.667969 -19.664062 20.042969 -20.898438 C 22.230469 -22.132812 33.914062 -26.695312 35.527344 -26.789062 C 33.152344 -24.035156 22.132812 -15.578125 25.554688 -11.304688 C 26.410156 -10.070312 27.738281 -9.59375 29.542969 -9.59375 C 32.582031 -9.59375 36.859375 -11.019531 41.988281 -12.730469 C 43.699219 -13.300781 45.503906 -13.964844 47.402344 -14.535156 C 60.605469 -18.902344 74.285156 -23.9375 74.382812 -23.9375 C 75.046875 -24.128906 75.425781 -24.890625 75.140625 -25.648438 Z M 75.140625 -25.648438 "/></g></g></g></svg>