<svg xmlns="http://www.w3.org/2000/svg" xmlns:xlink="http://www.w3.org/1999/xlink" width="500" zoomAndPan="magnify" viewBox="0 0 375 374.999991" height="500" preserveAspectRatio="xMidYMid meet" version="1.0"><defs><g/></defs><g fill="#ffffff" fill-opacity="1"><g transform="translate(47.644434, 207.161819)"><g><path d="M 132.453125 -135.828125 L 84.8125 -135.828125 L 84.8125 0 L 51 0 L 51 -135.828125 L 3.375 -135.828125 L 3.375 -163.015625 L 132.453125 -163.015625 Z M 132.453125 -135.828125 "/></g></g></g><g fill="#ffffff" fill-opacity="1"><g transform="translate(155.357996, 291.525042)"><g><path d="M 160.875 -133.234375 L 160.875 0 L 136.53125 0 L 136.53125 -81.8125 C 136.53125 -83.519531 136.578125 -85.351562 136.671875 -87.3125 C 136.765625 -89.28125 136.929688 -91.273438 137.171875 -93.296875 L 99.078125 -21.03125 C 96.992188 -17.050781 93.78125 -15.0625 89.4375 -15.0625 L 85.578125 -15.0625 C 83.429688 -15.0625 81.53125 -15.566406 79.875 -16.578125 C 78.226562 -17.585938 76.914062 -19.070312 75.9375 -21.03125 L 37.640625 -93.5625 C 37.828125 -91.414062 37.976562 -89.347656 38.09375 -87.359375 C 38.21875 -85.367188 38.28125 -83.519531 38.28125 -81.8125 L 38.28125 0 L 13.953125 0 L 13.953125 -133.234375 L 34.890625 -133.234375 C 36.054688 -133.234375 37.097656 -133.203125 38.015625 -133.140625 C 38.929688 -133.078125 39.738281 -132.90625 40.4375 -132.625 C 41.144531 -132.351562 41.789062 -131.925781 42.375 -131.34375 C 42.957031 -130.757812 43.523438 -129.953125 44.078125 -128.921875 L 81.359375 -57.84375 C 82.515625 -55.707031 83.597656 -53.503906 84.609375 -51.234375 C 85.617188 -48.972656 86.582031 -46.644531 87.5 -44.25 C 88.414062 -46.707031 89.378906 -49.097656 90.390625 -51.421875 C 91.398438 -53.742188 92.488281 -55.976562 93.65625 -58.125 L 130.65625 -128.921875 C 131.207031 -129.953125 131.789062 -130.757812 132.40625 -131.34375 C 133.019531 -131.925781 133.675781 -132.351562 134.375 -132.625 C 135.082031 -132.90625 135.878906 -133.078125 136.765625 -133.140625 C 137.648438 -133.203125 138.707031 -133.234375 139.9375 -133.234375 Z M 160.875 -133.234375 "/></g></g></g></svg>